<svg width="23" height="21" viewBox="0 0 23 21" fill="none" xmlns="http://www.w3.org/2000/svg">
<path d="M0 0.00845127C1.64061 -0.00122471 3.28121 -0.00259213 4.92171 0.00434934C4.97146 0.959643 5.13679 2.05513 5.26248 3.01379L16.3457 3.00801C18.4939 3.00432 20.8676 2.95531 22.9995 3.04955C22.7891 3.86096 22.5742 4.66165 22.4095 5.48432L5.71304 5.47359C5.72524 6.2381 5.879 7.24851 5.94285 8.05035L21.6788 8.06098C21.5103 8.88123 21.3322 9.69937 21.1447 10.5154C19.8496 10.5235 18.5154 10.4754 17.2091 10.4723L6.23176 10.478C6.38668 11.3006 6.47934 12.1635 6.57231 12.9949C11.1678 12.9959 15.8681 12.9522 20.4551 13.0106L19.9126 15.413C15.7332 15.4582 11.5533 15.4412 7.37447 15.3623C6.4826 16.0377 5.44916 17.1836 4.57664 17.9673C4.50817 16.5492 4.28762 14.9626 4.11408 13.5477C3.67372 9.95757 3.08128 6.34244 2.71127 2.74423C1.89365 2.77147 1.07572 2.78819 0.257677 2.79419C0.207299 1.87465 0.0926581 0.928196 0 0.00845127Z" fill="#FDFDFE"/>
<path d="M15.2911 17.7486C15.7786 17.6438 16.2848 17.809 16.6164 18.1813C16.9481 18.5537 17.0539 19.0756 16.8937 19.5477C16.7334 20.0199 16.3316 20.3694 15.8418 20.4629C15.0968 20.6049 14.376 20.1212 14.2252 19.3779C14.0744 18.6345 14.5495 17.9082 15.2911 17.7486Z" fill="#FDFDFE"/>
<path d="M8.9483 17.8015C9.66821 17.5833 10.4288 17.9893 10.6482 18.7088C10.8676 19.4284 10.4629 20.1896 9.74373 20.4102C9.02287 20.6312 8.25952 20.2254 8.0396 19.5042C7.81978 18.783 8.2268 18.0203 8.9483 17.8015Z" fill="#FDFDFE"/>
</svg>
