<svg width="84" height="94" viewBox="0 0 84 94" fill="none" xmlns="http://www.w3.org/2000/svg">
<path d="M59.839 51.836C66.6007 46.5157 70.964 38.281 70.964 29.031C70.964 13.023 57.941 0 41.933 0C25.925 0 12.902 13.023 12.902 29.031C12.902 38.281 17.2653 46.515 24.027 51.836C9.89 58.1094 0 72.274 0 88.707C0 91.3789 2.168 93.5468 4.8398 93.5468H79.0348C81.7067 93.5468 83.8746 91.3788 83.8746 88.707C83.8668 72.273 73.9756 58.109 59.839 51.836ZM22.577 29.031C22.577 18.359 31.2606 9.676 41.932 9.676C52.6034 9.676 61.287 18.3596 61.287 29.031C61.287 39.703 52.6034 48.386 41.932 48.386C31.2606 48.386 22.577 39.7024 22.577 29.031ZM10.057 83.871C12.3812 69.262 25.069 58.062 40.319 58.062H43.5456C58.7956 58.062 71.4836 69.261 73.8116 83.867L10.057 83.871Z" fill="white"/>
</svg>
