<svg width="31" height="28" viewBox="0 0 31 28" fill="none" xmlns="http://www.w3.org/2000/svg">
<path d="M0 0.0113911C2.2113 -0.00165074 4.4226 -0.00349381 6.63375 0.00586228C6.7008 1.29346 6.92365 2.77002 7.09305 4.06215L22.0316 4.05436C24.927 4.04939 28.1265 3.98333 31 4.11035C30.7163 5.20402 30.4267 6.28323 30.2047 7.39207L7.70035 7.37761C7.71679 8.40806 7.92404 9.76993 8.01009 10.8507L29.2199 10.865C28.9927 11.9706 28.7527 13.0733 28.4999 14.1733C26.7543 14.1842 24.9561 14.1194 23.1953 14.1151L8.3995 14.1228C8.60832 15.2316 8.7332 16.3946 8.85852 17.5152C15.0525 17.5166 21.3879 17.4577 27.5706 17.5363L26.8392 20.7745C21.206 20.8354 15.5722 20.8125 9.93972 20.7062C8.7376 21.6164 7.34468 23.1611 6.16864 24.2173C6.07636 22.306 5.77909 20.1674 5.54519 18.2603C4.95164 13.4214 4.15311 8.54868 3.6544 3.69882C2.55237 3.73554 1.44991 3.75808 0.347311 3.76616C0.279409 2.52676 0.12489 1.25107 0 0.0113911Z" fill="black"/>
<path d="M20.6101 23.9226C21.2672 23.7812 21.9494 24.004 22.3964 24.5058C22.8435 25.0077 22.9861 25.7112 22.7701 26.3475C22.554 26.9839 22.0125 27.4549 21.3524 27.581C20.3481 27.7725 19.3767 27.1205 19.1734 26.1186C18.9701 25.1166 19.6106 24.1376 20.6101 23.9226Z" fill="black"/>
<path d="M12.061 23.9939C13.0313 23.6997 14.0566 24.2469 14.3523 25.2167C14.648 26.1866 14.1025 27.2127 13.1331 27.5099C12.1615 27.8079 11.1326 27.2609 10.8362 26.2888C10.5399 25.3168 11.0885 24.2887 12.061 23.9939Z" fill="black"/>
</svg>
