<svg width="20" height="20" viewBox="0 0 20 20" fill="none" xmlns="http://www.w3.org/2000/svg">
<path d="M7.13672 0.00685501C8.79622 -0.0710819 10.5453 0.520809 11.8691 1.51174C13.4081 2.68695 14.4215 4.42202 14.6885 6.33986C14.8978 7.80083 14.6606 9.29109 14.0088 10.6153C13.8858 10.8653 13.7247 11.1767 13.5605 11.3955C13.8222 11.6184 14.1601 11.9785 14.4072 12.2276L16.0225 13.8565L18.5098 16.3447C18.9338 16.77 19.5608 17.3646 19.9385 17.8076C19.2602 18.538 18.4882 19.2424 17.793 20C17.387 19.6224 16.9552 19.1676 16.5645 18.7715L15.2998 17.5078C14.0217 16.1833 12.6466 14.8875 11.3623 13.5723C10.0214 14.2729 9.301 14.613 7.75879 14.7149C5.83207 14.8269 3.93882 14.1764 2.48828 12.9033C1.00967 11.5915 0.117505 9.74147 0.0117188 7.7676C-0.0991751 5.81341 0.573344 3.89594 1.87988 2.4385C3.27172 0.877485 5.07698 0.125825 7.13672 0.00685501ZM7.06445 3.02248C4.66779 3.19661 2.8683 5.28346 3.04785 7.67971C3.22765 10.0763 5.3188 11.8722 7.71484 11.6865C10.1026 11.5015 11.8901 9.41856 11.7109 7.03029C11.5318 4.64193 9.45315 2.84904 7.06445 3.02248Z" fill="#FDFDFE"/>
</svg>
