<svg width="59" height="100" viewBox="0 0 59 100" fill="none" xmlns="http://www.w3.org/2000/svg">
<path d="M58.3764 29.228C58.3764 13.118 45.3364 0.056 29.2394 0.00399998V0C29.2244 0 29.2074 0.002 29.1904 0.002C29.1754 0.002 29.1584 0 29.1434 0V0.00399998C13.0454 0.056 0.00640462 13.118 0.00640462 29.228C0.00640462 29.228 -0.300596 36.503 3.3364 44.04C6.0464 49.662 9.48541 53.42 13.0164 58.532C18.4604 66.412 21.0464 70.55 23.7604 78.178C25.6884 83.591 27.5384 89.979 29.1894 99.168C30.8424 89.979 32.6934 83.591 34.6214 78.178C37.3384 70.549 39.9244 66.411 45.3654 58.532C48.8964 53.421 52.3334 49.662 55.0464 44.04C58.6824 36.503 58.3764 29.228 58.3764 29.228ZM29.1704 39.803C23.1994 39.803 18.3614 34.964 18.3614 28.992C18.3614 23.023 23.1984 18.186 29.1704 18.186C35.1434 18.186 39.9804 23.023 39.9804 28.992C39.9804 34.963 35.1434 39.803 29.1704 39.803Z" fill="black"/>
</svg>
