<svg width="25" height="26" viewBox="0 0 25 26" fill="none" xmlns="http://www.w3.org/2000/svg">
<path fill-rule="evenodd" clip-rule="evenodd" d="M8.94846 0.0085967C11.0292 -0.0891219 13.2221 0.65288 14.8821 1.89532C16.8116 3.36885 18.0824 5.54434 18.4172 7.94903C18.6797 9.78078 18.3829 11.6491 17.5656 13.3094C17.4114 13.6231 17.2081 14.0134 17.0022 14.2879C17.3303 14.5673 17.7546 15.0185 18.0647 15.3309L20.0901 17.3738L23.2092 20.4939C23.7408 21.0271 24.5267 21.7724 25.0002 22.3279C24.1497 23.2437 23.1815 24.127 22.3098 25.077C21.8008 24.6035 21.2598 24.0326 20.7697 23.5359L19.1838 21.952C17.5812 20.2912 15.8566 18.6665 14.2463 17.0174C12.5651 17.8958 11.6623 18.3233 9.72873 18.451C7.31271 18.5915 4.93819 17.775 3.11936 16.1785C1.26549 14.5337 0.147601 12.2148 0.0148667 9.74004C-0.124327 7.28961 0.718335 4.88399 2.35666 3.05645C4.10181 1.09933 6.36594 0.157761 8.94846 0.0085967ZM8.85862 3.78985C5.8532 4.00803 3.59607 6.62484 3.82151 9.62969C4.04704 12.6344 6.66895 14.8848 9.67307 14.6522C12.6671 14.4202 14.9085 11.8089 14.6838 8.81426C14.459 5.81983 11.8535 3.57254 8.85862 3.78985Z" fill="black"/>
</svg>
