<svg width="23" height="23" viewBox="0 0 23 23" fill="none" xmlns="http://www.w3.org/2000/svg">
<path d="M4.20698 5.00372C2.80471 4.99778 1.40236 4.99895 0 5.00722C0.0792022 5.7934 0.177195 6.60242 0.220257 7.38842C0.919502 7.38329 1.61866 7.369 2.31754 7.34571C2.63381 10.4214 3.14022 13.5115 3.51663 16.5803C3.66497 17.7897 3.85349 19.1459 3.91202 20.3581C4.65783 19.6882 5.54119 18.7087 6.30355 18.1314C9.87556 18.1988 13.4484 18.2133 17.0208 18.1748L17.4846 16.1212C13.5637 16.0713 9.54598 16.1087 5.61787 16.1078C5.5384 15.3971 5.4592 14.6596 5.32678 13.9564L14.71 13.9515C15.8266 13.9542 16.967 13.9953 18.074 13.9884C18.2343 13.2908 18.3865 12.5915 18.5306 11.8904L5.07982 11.8813C5.02525 11.1959 4.89382 10.3322 4.88339 9.67872L14.4962 9.68789V7.57613H11.4962H4.49826C4.39083 6.75668 4.2495 5.82028 4.20698 5.00372Z" fill="white"/>
<path d="M12.5743 20.171C12.991 20.0814 13.4237 20.2226 13.7071 20.5409C13.9907 20.8592 14.0811 21.3053 13.9441 21.7089C13.8071 22.1124 13.4637 22.4112 13.045 22.4911C12.4082 22.6126 11.7921 22.1991 11.6631 21.5637C11.5342 20.9283 11.9404 20.3074 12.5743 20.171Z" fill="#FDFDFE"/>
<path d="M7.15253 20.2165C7.76789 20.0299 8.41806 20.3769 8.60559 20.9919C8.79312 21.607 8.44718 22.2577 7.83244 22.4462C7.21627 22.6352 6.56377 22.2883 6.37579 21.6718C6.1879 21.0554 6.53581 20.4034 7.15253 20.2165Z" fill="#FDFDFE"/>
<line x1="18" x2="18" y2="10" stroke="white" stroke-width="2"/>
<line x1="13" y1="5" x2="23" y2="5" stroke="white" stroke-width="2"/>
</svg>
